<?xml version="1.0" encoding="UTF-8"?>
<svg width="530px" height="625px" viewBox="0 0 530 625" version="1.1" xmlns="http://www.w3.org/2000/svg" xmlns:xlink="http://www.w3.org/1999/xlink">
    <!-- Generator: Sketch 43.2 (39069) - http://www.bohemiancoding.com/sketch -->
    <title>logo-red</title>
    <desc>Created with Sketch.</desc>
    <defs></defs>
    <g id="Page-1" stroke="none" stroke-width="1" fill="none" fill-rule="evenodd">
        <g id="Letter-Copy" transform="translate(-41.000000, -128.000000)" fill="#D80027">
            <g id="logo-red" transform="translate(41.000000, 128.000000)">
                <g id="beard-red" transform="translate(32.000000, 191.000000)">
                    <path d="M449.591152,0.0367607204 C440.53004,0.0367607204 433.183872,7.3008225 433.183872,16.2571951 C433.183872,16.4309245 433.020694,34.177696 427.256101,51.2760844 C425.139488,57.5536112 422.743589,62.4816326 420.193926,66.362624 C421.136909,60.3751633 421.224774,56.2878682 421.229481,55.3152937 C421.267138,48.7368427 417.283387,42.7866097 411.143798,40.2520214 C405.007347,37.7127796 397.921636,39.0964105 393.217704,43.7514285 C393.109441,43.8569071 381.354316,54.441993 357.960175,54.441993 C347.306505,54.441993 338.791414,48.829912 328.010653,41.7240681 C315.091313,33.2097749 300.447616,23.5584846 279.858889,23.5584846 C258.258141,23.5584846 242.655771,29.7460444 232.998431,35.3022838 C223.341091,29.7460444 207.737152,23.5584846 186.137973,23.5584846 C165.550815,23.5584846 150.907118,33.2097749 137.987778,41.7240681 C127.207017,48.829912 118.691926,54.441993 108.038256,54.441993 C85.5996498,54.441993 74.0077037,44.8186236 72.694431,43.6583591 C68.0830707,38.8466744 61.1605387,37.4894132 54.920532,39.9448926 C48.6381616,42.4127812 44.7297239,48.6375687 44.7705185,55.318396 C44.7767946,56.2801124 44.8646599,60.2960544 45.7794007,66.1826899 C33.15033,47.4431789 32.817697,16.6837629 32.8145589,16.2571951 C32.8145589,7.3008225 25.4683906,0.0367607204 16.4072795,0.0367607204 C7.34773737,0.0367607204 0,7.3008225 0,16.2571951 L0,176.851439 C0,187.352763 0,211.946335 18.7953333,216.333003 C22.8779327,217.283861 26.6357441,216.937954 30.0420943,215.80561 C35.1147475,254.187405 48.8531178,312.163397 86.0279933,348.914928 C90.7193737,353.552883 97.7768418,354.939616 103.908586,352.431397 C106.27938,351.460374 108.331663,349.980572 109.955603,348.151759 C110.314909,348.694664 110.682061,349.24067 111.049212,349.788228 C139.919246,392.600123 180.710721,421.540034 229.017818,433.477728 C230.326384,433.801919 231.663192,433.963239 232.998431,433.963239 C234.335239,433.963239 235.670478,433.801919 236.979044,433.477728 C285.284572,421.540034 326.076047,392.598572 354.94765,349.788228 C355.314801,349.242221 355.681953,348.694664 356.041259,348.151759 C357.665199,349.980572 359.719051,351.460374 362.088276,352.431397 C368.22002,354.939616 375.275919,353.554434 379.968869,348.914928 C417.142175,312.163397 430.880545,254.187405 435.954768,215.80561 C439.359549,216.937954 443.11736,217.283861 447.201529,216.333003 C466,211.946335 466,187.352763 466,176.851439 L466,16.2571951 C466,7.3008225 458.652263,0.0367607204 449.591152,0.0367607204 Z M86.14567,84.6057653 C92.5896498,86.0018053 99.8887475,86.8828617 108.038256,86.8828617 C128.625414,86.8828617 143.27068,77.2315714 156.19002,68.7172782 C166.970781,61.6129855 175.485872,56.0009044 186.137973,56.0009044 C208.573441,56.0009044 220.165387,65.6196205 221.483367,66.781436 C224.572774,70.0140443 228.490626,71.8475103 232.998431,71.8475103 C237.506236,71.8475103 241.424088,70.0140443 244.513495,66.781436 C245.833044,65.6196205 257.42499,56.0009044 279.858889,56.0009044 C290.51099,56.0009044 299.026081,61.6129855 309.806842,68.7172782 C322.726182,77.2315714 337.371448,86.8828617 357.958606,86.8828617 C366.181859,86.8828617 373.535872,85.9862938 380.022215,84.5685375 C370.978364,100.570259 352.175185,117.105578 313.097084,117.105578 C308.018155,117.105578 302.634835,116.829472 297.097751,116.28967 C283.670047,114.97429 265.569791,110.807886 244.602929,90.0797935 C241.398983,86.9123337 237.200276,85.3286038 233.001569,85.3286038 C228.801293,85.3286038 224.602586,86.9123337 221.39864,90.0797935 C200.431778,110.807886 182.331522,114.975841 168.903818,116.28967 C163.366734,116.831023 157.986552,117.105578 152.913899,117.105578 L152.904485,117.105578 C121.829973,117.102476 98.4107273,104.525706 86.14567,84.6057653 Z M433.183872,164.524405 C429.302108,161.246813 423.97998,159.855427 418.759838,161.066879 C411.357185,162.788662 406.121354,169.319027 406.108801,176.83903 C406.107232,177.592891 405.694579,234.486177 384.75596,283.071474 C384.351152,275.252098 378.316687,268.779126 370.37429,267.812756 C362.168296,266.827772 354.462822,272.030348 352.451333,279.978469 C352.208135,280.941737 327.329697,375.234936 232.998431,400.970159 C194.348673,390.450222 162.735987,367.503977 138.984108,332.717761 C120.195051,305.194055 113.602013,280.190978 113.548667,279.978469 C111.538747,272.028797 103.833273,266.813812 95.6257104,267.812756 C87.6817441,268.779126 81.6488485,275.252098 81.2440404,283.073025 C60.3038519,234.487728 59.8927677,177.595994 59.8911987,176.851439 C59.8911987,169.328334 54.6585051,162.793316 47.2527138,161.063777 C42.0388485,159.84612 36.7041684,161.239058 32.8161279,164.521303 L32.8161279,100.014945 C41.5132256,106.993594 52.3049697,111.65947 65.5883232,112.591715 C80.2477104,131.236606 106.467663,149.544895 152.901347,149.547998 L152.910761,149.547998 C159.061333,149.547998 165.530418,149.220704 172.136007,148.572321 C194.926074,146.340208 214.58437,138.266443 233,123.420332 C251.41563,138.266443 271.073926,146.340208 293.863993,148.572321 C300.469582,149.220704 306.941805,149.547998 313.097084,149.547998 C359.54332,149.547998 385.763273,131.236606 400.42266,112.591715 C413.699737,111.654817 424.489912,106.992043 433.183872,100.014945 L433.183872,164.524405 L433.183872,164.524405 Z" id="Shape" fill-rule="nonzero"></path>
                </g>
                <g id="glasses-1-red">
                    <path d="M528.747809,14.2335974 C528.638154,12.4395842 527.831657,11.3112343 526.208643,10.8643069 C525.064338,10.5503861 523.929466,10.2043168 522.774549,10.0126865 C506.289722,7.24413201 489.78426,4.54050495 473.130234,3.30625413 C459.829533,2.31721452 446.511146,1.68937294 433.180968,1.04955446 C407.526374,-0.179023102 381.92366,0.421712871 356.408788,3.87105941 C340.820067,5.9789934 325.389344,8.99591089 310.397241,14.1743432 C302.821602,16.7928713 295.376251,19.8476106 287.79,22.4232739 C275.953137,26.4304917 263.805584,28.2352211 251.521257,25.7717624 C244.135451,24.2872574 236.848098,22.029297 229.685729,19.5500792 C216.725195,15.0688284 203.773504,10.6512442 190.328954,8.00687129 C164.187397,2.84545875 137.847164,0.475924092 113.288532,0.758326733 C93.2693882,0.789844884 75.2859399,1.51980528 57.3820801,3.81810891 C42.6988988,5.70163366 28.035762,7.79822112 13.3720356,9.9269571 C10.2562959,10.385231 7.21012236,11.3641848 4.15923248,12.2258911 C2.52678532,12.6835347 1.44674082,13.8427723 1.39191324,15.7855512 C1.1083426,25.0455842 0.809443826,34.3012046 0.590723026,43.5725842 C0.561245829,44.9669472 0.879599555,46.371396 1.07886541,47.7657591 C1.24275862,48.9413861 1.84527253,49.7558152 2.90055617,50.2506502 C4.02010011,50.7725908 5.17030033,51.2989439 6.16604004,52.0333168 C10.9796663,55.6200825 13.2989321,61.0493993 15.1453838,66.6848449 C16.4594772,70.7141254 17.3107786,74.9073003 18.4002558,79.0160066 C19.0770523,81.5765413 19.9731591,84.0771914 20.5155395,86.663571 C23.058832,98.753934 25.4234928,110.897248 28.0263293,122.968069 C30.5100779,134.485432 33.745495,145.747498 38.8969299,156.285277 C44.6508788,168.057307 52.8537931,177.073389 64.4955172,182.256234 C71.543515,185.396073 78.8750834,187.397475 86.3911791,188.675221 C99.8598999,190.952723 113.408799,191.230083 126.996607,190.176116 C140.754205,189.112063 154.337297,186.886881 167.572558,182.607977 C177.397898,179.425274 186.686162,174.997604 194.570133,167.823442 C206.605673,156.849452 216.296596,143.821109 223.73782,128.877092 C231.174327,113.953878 236.390022,98.0857492 241.069232,81.9982541 C242.418109,77.3789538 243.686808,72.7325479 245.250278,68.1977162 C247.559522,61.5183894 252.03475,57.3895116 258.698954,56.2926799 C260.819544,55.9409373 263.018543,55.8457525 265.169789,55.9787591 C270.169121,56.2926799 274.977442,57.4210297 278.311902,61.8858911 C279.765717,63.82867 281.109288,65.9788383 282.044894,68.251297 C283.867175,72.6745545 285.599255,77.1665215 286.952848,81.7650198 C292.826474,101.650452 300.621424,120.597274 310.475651,138.595399 C318.647909,153.551393 329.428899,165.6323 343.72416,173.9657 C353.828354,179.862116 364.63941,183.61971 375.897931,185.961508 C392.831402,189.473891 409.932892,190.334967 427.125762,189.526842 C437.518832,189.047135 447.792225,187.63134 457.786763,184.439182 C468.04129,181.149947 477.058954,175.80699 483.798621,166.652858 C488.158888,160.745726 491.394305,154.156541 494.053148,147.227591 C499.657942,132.62397 503.260645,117.392508 506.516696,102.043168 C508.109644,94.5368053 509.752113,87.0380066 511.464739,79.554967 C512.361435,75.642934 513.486285,71.8002409 514.5003,67.9266601 C515.445929,64.2970297 516.253014,60.6138185 518.402492,57.4739802 C520.562581,54.3177525 522.772781,51.2258218 526.376073,49.857934 C527.948977,49.2565677 528.74604,48.0859835 529.084438,46.4892739 C529.342659,45.2543927 529.621513,43.9987096 529.621513,42.7581551 C529.631535,37.2178944 529.631535,31.6776337 529.48238,26.1474587 C529.365061,22.1679769 528.977141,18.2086667 528.747809,14.2335974 M22.7216129,31.7696667 C17.1174082,31.7696667 12.5779199,30.5776502 12.5779199,29.1089043 C12.5779199,27.6281815 17.1174082,26.4374257 22.7216129,26.4374257 C28.3163849,26.4374257 32.8511568,27.6294422 32.8511568,29.1089043 C32.8511568,30.5770198 28.3163849,31.7696667 22.7216129,31.7696667 M218.627063,90.3543465 C215.073882,106.52505 209.214994,121.682129 201.370523,135.998304 C197.089255,143.821739 192.232002,151.144667 186.070089,157.424974 C177.936741,165.727485 168.146185,170.623515 157.399978,173.63665 C135.643448,179.724066 113.638721,181.246393 91.3798999,177.681059 C87.0196329,176.978835 82.7189099,175.75404 78.4282091,174.594802 C69.5933037,172.167904 62.88901,166.665465 57.7918131,158.554584 C52.1528254,149.57065 48.692792,139.704838 46.3735261,129.283046 C43.3473971,115.679812 41.6447942,101.852799 40.3607675,87.9545545 C39.609099,79.8915809 39.7535373,71.8613861 40.6844271,63.8406469 C41.1519355,59.8075842 41.4561402,55.7095941 42.312158,51.7597393 C45.338287,37.7095776 53.4616129,28.7577921 66.5217798,25.0960132 C78.4576863,21.7538284 90.6176196,19.7845743 102.891924,18.7205215 C111.995662,17.9218515 121.12416,17.5177888 127.017241,17.1502871 C147.967275,17.4326898 165.557497,18.858571 182.864149,23.1267591 C189.932191,24.8564752 197.089844,26.4159934 203.555962,30.0992046 C206.736552,31.9083465 209.822814,34.0585149 212.600156,36.5068449 C217.18386,40.5462112 219.52376,46.0543234 220.504171,52.2810495 C222.540456,65.1278482 221.379644,77.7893201 218.627063,90.3543465 M489.705261,84.3564422 C489.247775,103.885719 486.170945,122.950419 479.660612,141.278224 C477.033014,148.698228 473.45802,155.553426 468.082558,161.120162 C462.090434,167.336172 454.633882,170.625406 446.709822,172.92434 C436.754194,175.808881 426.571591,176.50165 416.317063,176.596835 C400.837408,176.745601 385.586496,174.681162 370.465873,171.242531 C355.484383,167.837941 343.537275,159.449069 334.030879,146.750406 C321.846185,130.464977 314.042392,111.987145 309.672102,91.7606865 C307.650556,82.4149241 305.949132,73.0111683 306.167853,63.3622013 C306.267486,59.2112607 306.666018,55.0174554 307.372881,50.9245083 C309.114394,40.7277558 314.968565,34.069231 323.788142,30.2385149 C332.647809,26.406538 341.916029,24.0653696 351.263248,22.084769 C361.66634,19.8759769 372.157864,18.2263168 382.740768,17.4976172 C391.004405,16.9227261 399.285729,16.6831881 404.889933,16.4222178 C427.059143,17.5827162 446.4404,19.3275611 465.285762,25.0758416 C468.750512,26.1291782 472.064928,27.8166601 475.340434,29.4612772 C478.446741,31.0157525 480.834983,33.5592673 482.378409,36.8541749 C484.081602,40.5001947 485.831958,44.1449538 487.177297,47.9403696 C488.7502,52.3901023 489.098621,57.1581683 489.26782,61.8783267 C489.535473,69.3695611 489.883893,76.874033 489.705261,84.3564422 M507.195851,31.7696667 C501.601669,31.7696667 497.06218,30.5776502 497.06218,29.1089043 C497.06218,27.6281815 501.601669,26.4374257 507.195851,26.4374257 C512.789444,26.4374257 517.328932,27.6294422 517.328932,29.1089043 C517.329522,30.5770198 512.790033,31.7696667 507.195851,31.7696667" id="Shape" fill-rule="nonzero"></path>
                </g>
            </g>
        </g>
    </g>
</svg>